<?xml version="1.0" encoding="utf-8"?>
<svg version="1.1" xmlns:xlink="http://www.w3.org/1999/xlink" width="26px" height="26px" xmlns="http://www.w3.org/2000/svg">
  <g transform="matrix(1 0 0 1 -133 -204 )">
    <path d="M 14 1.11257102272727  L 14 12  L 24.8874289772727 12  C 25.461083984375 11.9612926136364  25.9261363636364 12.4263449928977  25.9261363636364 13  C 25.9261363636364 13.5736550071023  25.461083984375 14.0387073863636  24.8874289772727 14  L 14 14  L 14 24.8874289772727  C 14.0387073863636 25.461083984375  13.5736550071023 25.9261363636364  13 25.9261363636364  C 12.4263449928977 25.9261363636364  11.9612926136364 25.461083984375  12 24.8874289772727  L 12 14  L 1.11257102272727 14  C 0.538916015625 14.0387073863636  0.0738636363636364 13.5736550071023  0.0738636363636364 13  C 0.0738636363636364 12.4263449928977  0.538916015625 11.9612926136364  1.11257102272727 12  L 12 12  L 12 1.11257102272727  C 11.9612926136364 0.538916015625  12.4263449928977 0.0738636363636364  13 0.0738636363636364  C 13.5736550071023 0.0738636363636364  14.0387073863636 0.538916015625  14 1.11257102272727  Z " fill-rule="nonzero" fill="#d8d8d8" stroke="none" transform="matrix(1 0 0 1 133 204 )" />
  </g>
</svg>