<?xml version="1.0" encoding="utf-8"?>
<svg version="1.1" xmlns:xlink="http://www.w3.org/1999/xlink" width="12px" height="12px" viewBox="99 61  12 12" xmlns="http://www.w3.org/2000/svg">
  <path d="M 105 61  C 108.36 61  111 63.64  111 67  C 111 70.36  108.36 73  105 73  C 101.64 73  99 70.36  99 67  C 99 63.64  101.64 61  105 61  Z " fill-rule="nonzero" fill="#f0f0f0" stroke="none" />
  <path d="M 105 61.5  C 108.08 61.5  110.5 63.92  110.5 67  C 110.5 70.08  108.08 72.5  105 72.5  C 101.92 72.5  99.5 70.08  99.5 67  C 99.5 63.92  101.92 61.5  105 61.5  Z " stroke-width="1" stroke="#797979" fill="none" />
  <path d="M 105 70  C 103.32 70  102 68.68  102 67  C 102 65.32  103.32 64  105 64  C 106.68 64  108 65.32  108 67  C 108 68.68  106.68 70  105 70  " fill-rule="nonzero" fill="#797979" stroke="none" />
</svg>