<?xml version="1.0" encoding="utf-8"?>
<svg version="1.1" xmlns:xlink="http://www.w3.org/1999/xlink" width="12px" height="12px" viewBox="318 61  12 12" xmlns="http://www.w3.org/2000/svg">
  <path d="M 324 61  C 327.36 61  330 63.64  330 67  C 330 70.36  327.36 73  324 73  C 320.64 73  318 70.36  318 67  C 318 63.64  320.64 61  324 61  Z " fill-rule="nonzero" fill="#f0f0f0" stroke="none" />
  <path d="M 324 61.5  C 327.08 61.5  329.5 63.92  329.5 67  C 329.5 70.08  327.08 72.5  324 72.5  C 320.92 72.5  318.5 70.08  318.5 67  C 318.5 63.92  320.92 61.5  324 61.5  Z " stroke-width="1" stroke="#797979" fill="none" />
  <path d="M 324 70  C 322.32 70  321 68.68  321 67  C 321 65.32  322.32 64  324 64  C 325.68 64  327 65.32  327 67  C 327 68.68  325.68 70  324 70  " fill-rule="nonzero" fill="#797979" stroke="none" />
</svg>