<?xml version="1.0" encoding="utf-8"?>
<svg version="1.1" xmlns:xlink="http://www.w3.org/1999/xlink" width="559px" height="76px" xmlns="http://www.w3.org/2000/svg">
  <g transform="matrix(1 0 0 1 -322 -463 )">
    <path d="M 323 465  A 1 1 0 0 1 324 464 L 879 464  A 1 1 0 0 1 880 465 L 880 537  A 1 1 0 0 1 879 538 L 324 538  A 1 1 0 0 1 323 537 L 323 465  Z " fill-rule="nonzero" fill="#ffffff" stroke="none" />
    <path d="M 322.5 465  A 1.5 1.5 0 0 1 324 463.5 L 879 463.5  A 1.5 1.5 0 0 1 880.5 465 L 880.5 537  A 1.5 1.5 0 0 1 879 538.5 L 324 538.5  A 1.5 1.5 0 0 1 322.5 537 L 322.5 465  Z " stroke-width="1" stroke-dasharray="3,1" stroke="#d7d7d7" fill="none" stroke-dashoffset="0.5" />
  </g>
</svg>