<?xml version="1.0" encoding="utf-8"?>
<svg version="1.1" xmlns:xlink="http://www.w3.org/1999/xlink" width="189px" height="76px" xmlns="http://www.w3.org/2000/svg">
  <g transform="matrix(1 0 0 1 -322 -551 )">
    <path d="M 323 553  A 1 1 0 0 1 324 552 L 509 552  A 1 1 0 0 1 510 553 L 510 625  A 1 1 0 0 1 509 626 L 324 626  A 1 1 0 0 1 323 625 L 323 553  Z " fill-rule="nonzero" fill="#ffffff" stroke="none" />
    <path d="M 322.5 553  A 1.5 1.5 0 0 1 324 551.5 L 509 551.5  A 1.5 1.5 0 0 1 510.5 553 L 510.5 625  A 1.5 1.5 0 0 1 509 626.5 L 324 626.5  A 1.5 1.5 0 0 1 322.5 625 L 322.5 553  Z " stroke-width="1" stroke-dasharray="3,1" stroke="#d7d7d7" fill="none" stroke-dashoffset="0.5" />
  </g>
</svg>