<?xml version="1.0" encoding="utf-8"?>
<svg version="1.1" xmlns:xlink="http://www.w3.org/1999/xlink" width="16px" height="16px" xmlns="http://www.w3.org/2000/svg">
  <g transform="matrix(1 0 0 1 -22 -17 )">
    <path d="M 6.4 12.6524822639628  L 6.4 15.9148936170213  L 2.62342342905405 15.9148936170213  C 2.10450451013514 15.9432624168883  1.70090091216216 15.5460993018617  1.72972972972973 15.035460987367  L 1.72972972972973 9.33333332779255  C 1.70090089527027 9.07801417885638  1.81621621621622 8.82269502992021  2.01801802364865 8.65248226396277  L 7.58198197635135 3.9432624168883  C 7.81261260135135 3.74468085106383  8.12972972972973 3.74468085106383  8.36036035472973 3.9432624168883  L 13.9243243243243 8.65248226396277  C 14.1261261317568 8.82269502992021  14.2414414358108 9.07801417885638  14.1837837837838 9.33333332779255  L 14.1837837837838 15.035460987367  C 14.2414414358108 15.5177304853723  13.8378378378378 15.943262400266  13.3189189189189 15.9148936170213  L 9.6 15.9148936170213  L 9.6 12.6524822639628  C 9.62882883445946 12.3971631150266  9.42702702702703 12.1985815492021  9.16756756756757 12.1702127659574  L 6.80360359797297 12.1702127659574  C 6.54414413851351 12.1985815658245  6.34234233108108 12.3971631316489  6.4 12.6524822639628  Z M 0.230630625 6.35460992353723  L 7.66846846283784 0.226950349069149  C 7.89909908783784 0.0283687832446803  8.21621621621622 0.0567375831117019  8.44684684121622 0.226950349069149  L 11.3297297297297 2.72340425531915  L 11.3297297297297 0.652482263962766  C 11.3297297297297 0.312056732047872  11.5891891891892 0.0567375831117019  11.9351351351351 0.0851063829787234  L 13.4342342398649 0.0851063829787234  C 13.7513513513514 0.0567375831117019  14.0108108108108 0.312056732047872  14.0108108108108 0.652482263962766  L 14.0108108108108 4.93617021276596  L 15.7117117060811 6.38297872340426  C 15.9423423310811 6.58156028922872  16 6.9503546043883  15.7981981925676 7.17730497007979  L 15.5387387331081 7.51773050199468  C 15.3369369256757 7.77304965093085  14.9333333277027 7.82978723404255  14.6738738682432 7.6028368849734  L 8.36036035472973 2.43971630651596  C 8.12972972972973 2.26950354055851  7.81261260135135 2.26950354055851  7.58198197635135 2.43971630651596  L 1.2972972972973 7.63120566821808  C 1.03783783783784 7.82978723404255  0.663063057432432 7.80141843417553  0.461261266891892 7.54609928523936  L 0.144144138513513 7.17730497007979  C -0.0576576689189182 6.92198582114362  -0.0288288344594597 6.5531914893617  0.230630625 6.35460992353723  Z " fill-rule="nonzero" fill="#40a0ff" stroke="none" transform="matrix(1 0 0 1 22 17 )" />
  </g>
</svg>