<?xml version="1.0" encoding="utf-8"?>
<svg version="1.1" xmlns:xlink="http://www.w3.org/1999/xlink" width="20px" height="18px" xmlns="http://www.w3.org/2000/svg">
  <g transform="matrix(1 0 0 1 -22 -123 )">
    <path d="M 11.1772583517916 12.7664577976506  C 11.6984258361894 12.6801455139494  12.1534166993714 12.3654014369608  12.4172003427311 11.9087166229632  C 12.6834636440701 11.448967348238  12.718834404368 10.9196185282304  12.5586834203834 10.4539875892383  C 13.0037656120393 10.0618773353543  13.5274495155277 9.75799189996211  14.1041895594629 9.56879870860174  C 14.4284216139353 9.97267227283061  14.9265599642685 10.231465027662  15.4856146280547 10.231465027662  C 16.044669291841 10.231465027662  16.5428076421742 9.97267225464191  16.8670396966465 9.56879870860174  C 17.4460066098117 9.75901106538755  17.9792405193213 10.0667387353062  18.4331787944252 10.4726128260705  C 18.237636290525 10.9715663286825  18.2803034661345 11.5321869769907  18.5491163189222 11.9959611428571  C 18.8281523877237 12.4792370200834  19.3017276928546 12.7801816324365  19.8146038630169 12.858603701402  C 19.9382011870444 13.4518315357526  19.9385355795329 14.0640475840245  19.8155863709699 14.6574094672224  C 19.2834125896258 14.7372124667548  18.8167722303345 15.0548131658938  18.5481337927388 15.5200520075786  C 18.2787185033738 15.9851709818957  18.2367528460575 16.5475248000522  18.4341613023782 17.0473214278136  C 17.9831839900827 17.4511949920424  17.4486923532682 17.7629226343312  16.8591795236402 17.9550566669193  C 16.5239885937679 17.5342224485483  16.0145534463364 17.2891117735738  15.4757894209121 17.2894495066313  C 14.9186997912622 17.2894495066313  14.4205614591594 17.5472619992421  14.0963293864566 17.9501552830618  C 13.4905122598934 17.7496522643206  12.935427621076 17.4205732663192  12.4692739752249 16.9855640712391  C 12.6544406759935 16.4920394061331  12.6082945880558 15.9417102030654  12.3435112435852 15.4857423751421  C 12.0782304684295 15.0250128381963  11.6360958370933 14.7309301523304  11.1517127986364 14.6358434073513  C 11.026898362677 14.0179917217671  11.0356072976875 13.3806848024221  11.1772583517916 12.7664577976506  Z M 12.290455084908 8.54146985979538  C 12.7817157701879 8.74242636150057  13.2503784808627 8.98553472072755  13.6934956201519 9.26687381583933  C 11.4243882080465 10.1450929231337  9.92816903739551 12.3229508667732  9.92816903739551 14.7512437970621  C 9.92816903739551 15.8130658451302  10.2161765123705 16.8550973827249  10.761651799794 17.7668437377795  L 0.163193615721877 17.7374354710117  C -0.298199858296238 13.8003543718275  1.92796272840247 10.0393620963904  5.60636209175349 8.54146985979538  C 4.6048850287466 7.61403602030356  4.03580166261041 6.3123561800549  4.03580166261041 4.94908433219131  C 4.03580166261041 2.24212794894453  6.23525070134226 0.0477062223012024  8.94840858833074 0.0477062223012024  C 11.6615664753192 0.0477062223012024  13.8610155140511 2.24212794894453  13.8610155140511 4.94908433219131  C 13.8610155140511 6.3123561800549  13.2919321479149 7.61403602030356  12.290455084908 8.54146985979538  Z M 13.7180586562389 13.7604572671466  C 13.7180586562389 14.7349615677273  14.5098603123045 15.5249533914362  15.4865971542381 15.5249533914362  C 16.4633339961717 15.5249533914362  17.2551356522373 14.7349615677273  17.2551356522373 13.7604572671466  C 17.2551356522373 12.785952966566  16.4633339961717 11.9959611428571  15.4865971542381 11.9959611428571  C 14.5098603123045 11.9959611428571  13.7180586562389 12.785952966566  13.7180586562389 13.7604572671466  Z " fill-rule="nonzero" fill="#d7d7d7" stroke="none" transform="matrix(1 0 0 1 22 123 )" />
  </g>
</svg>