<?xml version="1.0" encoding="utf-8"?>
<svg version="1.1" xmlns:xlink="http://www.w3.org/1999/xlink" width="10px" height="6px" xmlns="http://www.w3.org/2000/svg">
  <g transform="matrix(1 0 0 1 -201 -129 )">
    <path d="M 0.207089552238804 1.16217105777138  C -0.0356852855890089 0.905263258977792  -0.0356852855890079 0.488815693530436  0.207089552238804 0.231907894736842  C 0.435220229489318 -0.00945664507670517  0.799947434444346 -0.0258413756175196  1.04695273145989 0.193749994860199  L 1.08644279092817 0.232236836965461  L 5 4.37171052631579  L 8.91355720907183 0.231907894736842  C 9.141687888231 -0.00945665440227566  9.50641510350065 -0.0261703273543219  9.75342040286847 0.193421052631578  L 9.7929104477612 0.231907894736842  C 10.0210659829083 0.473246137512384  10.0368649770685 0.859089128017442  9.82929104477612 1.1203947317023  L 9.7929104477612 1.16217105777138  L 5.4396766120569 5.76743420538651  C 5.21154593480639 6.00879874520006  4.84681872985136 6.02551241796949  4.59981343283582 5.80592104749178  L 4.5603233879431 5.76743420538651  L 0.207089552238804 1.16217105777138  Z " fill-rule="nonzero" fill="#d7d7d7" stroke="none" transform="matrix(1 0 0 1 201 129 )" />
  </g>
</svg>