<?xml version="1.0" encoding="utf-8"?>
<svg version="1.1" xmlns:xlink="http://www.w3.org/1999/xlink" width="20px" height="20px" xmlns="http://www.w3.org/2000/svg">
  <g transform="matrix(1 0 0 1 -22 -18 )">
    <path d="M 19.9502487465019 10  C 19.9502487465019 15.4726368062034  15.4726368062034 19.9502487465019  10 19.9502487465019  C 8.38308456739739 19.9502487465019  9.37810946245336 18.8308457614272  7.51243782066231 16.9651741196362  C 5.77114429804105 15.0995024778452  0.0497512534981348 16.2189054629198  0.0497512534981348 10  C 0.0497512534981348 4.52736319379664  4.52736319379664 0.0497512534981348  10 0.0497512534981348  C 15.4726368062034 0.0497512534981348  19.9502487465019 4.52736319379664  19.9502487465019 10  Z M 10.7462686567164 17.4626865671642  C 14.4776119402985 17.089552238806  17.4626865671642 13.8557214027519  17.4626865671642 10  C 17.4626865671642 5.8955223880597  14.1044776119403 2.53731343283582  10 2.53731343283582  C 5.8955223880597 2.53731343283582  2.53731343283582 5.8955223880597  2.53731343283582 10  C 2.53731343283582 11.9900497609608  3.15920397038246 12.6119402985075  4.90049752215485 13.2338308360541  C 5.02487564132463 13.2338308360541  5.27363185051306 13.3582089552239  5.52238805970149 13.3582089552239  C 5.64676617887127 13.3582089552239  6.01990050722948 13.4825870743937  6.14427859724813 13.6069651644123  C 7.76119402985074 14.1044776119403  8.50746268656716 14.4776119402985  9.25373134328358 15.2238805970149  C 9.87562188083022 15.8457711345616  10.2487562091884 16.4676617012593  10.6218905375466 17.089552238806  C 10.6218905375466 17.2139303579757  10.7462686567164 17.3383084479944  10.7462686567164 17.4626865671642  Z M 14.9751243878265 6.26865671641791  C 14.9751243878265 7.01492537313433  14.4776119402985 7.51243782066231  13.7313432835821 7.51243782066231  C 12.9850746268657 7.51243782066231  12.4875621793377 7.01492537313433  12.4875621793377 6.26865671641791  C 12.4875621793377 5.52238805970149  12.9850746268657 5.02487561217351  13.7313432835821 5.02487561217351  C 14.4776119402985 5.02487561217351  14.9751243878265 5.52238805970149  14.9751243878265 6.26865671641791  Z M 11.4925373134328 4.6517412838153  C 11.4925373134328 5.3980099113806  10.9950248659048 5.8955223880597  10.2487562091884 5.8955223880597  C 9.50248755247202 5.8955223880597  9.00497510494403 5.39800994053172  9.00497513409515 4.6517412838153  C 9.00497516324627 3.90547262709888  9.50248758162313 3.4079601795709  10.2487562091884 3.40796020872202  C 10.9950248367537 3.40796023787313  11.4925373134328 3.90547265625  11.4925373134328 4.6517412838153  Z M 16.8407960296175 9.37810946245336  C 16.8407960296175 10.1243781191698  16.3432835820895 10.6218905666978  15.5970149253731 10.6218905375466  C 14.8507462686567 10.6218905375466  14.3532338211287 10.1243780900187  14.3532338211287 9.37810946245336  C 14.3532338211287 8.63184083488806  14.8507462686567 8.13432835820896  15.5970149253731 8.13432835820896  C 16.3432835820895 8.13432835820896  16.8407960296175 8.63184080573694  16.8407960296175 9.37810946245336  Z M 7.76119402985075 5.8955223880597  C 7.76119402985075 6.64179104477612  7.26368158232276 7.1393034923041  6.51741292560635 7.1393034923041  C 5.77114426888993 7.1393034923041  5.27363182136194 6.64179104477612  5.27363185051306 5.8955223880597  C 5.27363187966418 5.14925373134328  5.77114429804105 4.6517412838153  6.51741292560635 4.6517412838153  C 7.26368155317164 4.6517412838153  7.76119402985075 5.14925373134328  7.76119402985075 5.8955223880597  Z M 14.1044776119403 13.9800994927705  C 13.9800994927705 14.9751243586754  13.2338308360541 15.8457711345616  12.2388059701493 15.8457711345616  C 11.2437811042444 15.8457711345616  10.3731343283582 14.9751243586754  10.3731343283582 13.9800994927705  C 10.3731343283582 12.9850746268657  11.2437811042444 12.1144278509795  12.2388059701493 12.1144278509795  C 13.2338308360541 12.1144278509795  14.1044776119403 12.9850746268657  14.1044776119403 13.9800994927705  Z " fill-rule="nonzero" fill="#d7d7d7" stroke="none" transform="matrix(1 0 0 1 22 18 )" />
  </g>
</svg>