<?xml version="1.0" encoding="utf-8"?>
<svg version="1.1" xmlns:xlink="http://www.w3.org/1999/xlink" width="10px" height="6px" xmlns="http://www.w3.org/2000/svg">
  <g transform="matrix(1 0 0 1 -201 -25 )">
    <path d="M 0.207089552238804 4.83782894222862  C -0.0356852855890089 5.09473674102221  -0.0356852855890079 5.51118430646956  0.207089552238804 5.76809210526316  C 0.435220229489318 6.00945664507671  0.799947434444346 6.02584137561752  1.04695273145989 5.8062500051398  L 1.08644279092817 5.76776316303454  L 5 1.62828947368421  L 8.91355720907183 5.76809210526316  C 9.141687888231 6.00945665440227  9.50641510350065 6.02617032735432  9.75342040286847 5.80657894736842  L 9.7929104477612 5.76809210526316  C 10.0210659829083 5.52675386248762  10.0368649770685 5.14091087198256  9.82929104477612 4.8796052682977  L 9.7929104477612 4.83782894222862  L 5.4396766120569 0.232565794613486  C 5.21154593480639 -0.00879874520005908  4.84681872985136 -0.0255124179694945  4.59981343283582 0.194078952508224  L 4.5603233879431 0.232565794613486  L 0.207089552238804 4.83782894222862  Z " fill-rule="nonzero" fill="#d7d7d7" stroke="none" transform="matrix(1 0 0 1 201 25 )" />
  </g>
</svg>