<?xml version="1.0" encoding="utf-8"?>
<svg version="1.1" xmlns:xlink="http://www.w3.org/1999/xlink" width="20px" height="20px" xmlns="http://www.w3.org/2000/svg">
  <g transform="matrix(1 0 0 1 -56 -127 )">
    <path d="M 9.4 1.95503421875  L 9.4 7.42913001953125  C 9.38416420796319 8.50886558868938  8.50886558868937 9.38416420796319  7.42913001953125 9.4  L 1.95503421875 9.4  C 0.875298641964443 9.38416421875  0 8.50886559631681  0 7.42913001953125  L 0 1.95503421875  C 0 0.875298634337015  0.875298634337015 0  1.95503421875 0  L 7.42913001953125 0  C 8.5088655963168 0  9.38416421875 0.875298641964444  9.4 1.95503421875  Z M 9.4 12.5708699804687  L 9.4 18.04496578125  C 9.38416421874999 19.1247013580356  8.5088655963168 19.9999999892132  7.42913001953125 20  L 1.95503421875 20  C 0.875298634337015 20  0 19.124701365663  0 18.04496578125  L 0 12.5708699804687  C 0 11.4911344036832  0.875298641964443 10.61583578125  1.95503421875 10.6  L 7.42913001953125 10.6  C 8.50886558868938 10.6158357920368  9.38416420796319 11.4911344113106  9.4 12.5708699804687  Z M 19.2179863085937 2  C 19.6498322762535 1.9160017826509  19.9998764131692 2.26610124374429  19.9998764131692 2.69794721679688  C 19.9998764131692 3.12979318984946  19.6498322762535 3.47989265094285  19.2179863085937 3.5  L 12.1603128125 3.5  C 11.7284668448402 3.47989265094285  11.3784227079246 3.12979318984946  11.3784227079246 2.69794721679688  C 11.3784227079246 2.26610124374429  11.7284668448402 1.9160017826509  12.1603128125 2  L 19.2179863085937 2  Z M 20 6.68621701171875  C 20 7.11811124764131  19.6498805445163 7.468230703125  19.2179863085937 7.468230703125  C 19.2179863085937 7.468230703125  19.2179863085937 7.468230703125  19.2179863085937 7.5  L 12.1603128125 7.5  C 12.1603128344729 7.468230703125  12.1603128234865 7.468230703125  12.1603128454594 7.468230703125  C 11.7284186095369 7.468230703125  11.3782991540532 7.11811124764131  11.3782991540532 6.68621701171875  C 11.3782991540532 6.25432277579619  11.7284186095369 5.9042033203125  12.1603128454594 5.9042033203125  L 19.2179863085937 5.9  C 19.6498805445163 5.9  20 6.25432277579619  20 6.68621701171875  Z M 19.2179863085937 12.5  C 19.6498322762548 12.5513878959303  19.9998764131725 12.9014873570243  19.9998764131725 13.3333333300781  C 19.9998764131725 13.765179303132  19.6498322762548 14.1152787642259  19.2179863085937 14.1  L 12.1603128125 14.1  C 11.7284668448389 14.1152787642259  11.3784227079213 13.765179303132  11.3784227079213 13.3333333300781  C 11.3784227079213 12.9014873570243  11.7284668448389 12.5513878959303  12.1603128125 12.5  L 19.2179863085937 12.5  Z M 20 17.321603125  C 20 17.7534973609226  19.6498805445163 18.1036168164063  19.2179863085937 18.1036168164063  L 12.1603128125 18.1  C 11.7284185765774 18.1  11.3782991210937 17.7534973609226  11.3782991210937 17.321603125  C 11.3782991210937 16.8897088890774  11.7284185765774 16.5395894335937  12.1603128125 16.5395894335937  C 12.1603128125 16.5395894335937  12.1603128125 16.5395894335937  12.1603128125 16.5  L 19.2179863085937 16.5  C 19.2179863085937 16.5395894335937  19.2179863085937 16.5395894335937  19.2179863085937 16.5395894335937  C 19.6498805445163 16.5395894335937  20 16.8897088890774  20 17.321603125  Z M 7.42913001953125 1.56402736328125  C 7.42913001953125 1.56402736328125  7.42913001953125 1.56402736328125  7.42913001953125 1.6  L 1.95503421875 1.6  C 1.95503421179753 1.56402736328125  1.95503420617122 1.56402736328125  1.95503419921875 1.56402736328125  C 1.73908708665088 1.56402736328125  1.56402736328125 1.73908708665088  1.56402736328125 1.95503419921875  C 1.56402736328125 1.95503420385373  1.56402736328125 1.95503421411502  1.6 1.95503421875  L 1.6 7.42913001953125  C 1.56402736328125 7.64507713209912  1.73908708665088 7.82013685546875  1.95503419921875 7.82013685546875  C 1.95503419921875 7.82013685546875  1.95503421875 7.82013685546875  1.95503421875 7.9  L 7.42913001953125 7.9  C 7.64507713209912 7.82013685546875  7.82013685546875 7.64507713209912  7.9 7.42913001953125  L 7.9 1.95503421875  C 7.82013685546875 1.95503420948005  7.82013685546875 1.9550342084887  7.82013685546875 1.95503419921875  C 7.82013685546875 1.73908708665088  7.64507713209912 1.56402736328125  7.42913001953125 1.56402736328125  Z M 7.9 12.5708699804687  C 7.82013685546875 12.3549228679009  7.64507713209912 12.1798631445313  7.42913001953125 12.1  L 1.95503421875 12.1  C 1.95503420948004 12.1798631445313  1.9550342084887 12.1798631445313  1.95503419921875 12.1798631445313  C 1.73908708665088 12.1798631445313  1.56402736328125 12.3549228679009  1.56402736328125 12.5708699804687  C 1.56402736328125 12.5708699804687  1.56402736328125 12.5708699804687  1.6 12.5708699804687  L 1.6 18.04496578125  C 1.56402736328125 18.0449657882025  1.56402736328125 18.0449657938288  1.56402736328125 18.0449658007813  C 1.56402736328125 18.2609129133491  1.73908708665088 18.4359726367188  1.95503419921875 18.4359726367188  C 1.95503423629857 18.4359726367188  1.95503418167018 18.4359726367188  1.95503421875 18.4  L 7.42913001953125 18.4  L 7.42913001953125 18.4359726367188  C 7.64507713209912 18.4359726367188  7.82013685546875 18.2609129133491  7.82013685546875 18.0449658007813  C 7.82013685546875 18.0449658007813  7.82013685546875 18.04496578125  7.9 18.04496578125  L 7.9 12.5708699804687  Z " fill-rule="nonzero" fill="#d7d7d7" stroke="none" transform="matrix(1 0 0 1 56 127 )" />
  </g>
</svg>