<?xml version="1.0" encoding="utf-8"?>
<svg version="1.1" xmlns:xlink="http://www.w3.org/1999/xlink" width="20px" height="20px" xmlns="http://www.w3.org/2000/svg">
  <g transform="matrix(1 0 0 1 -22 -69 )">
    <path d="M 17.6 10.9741465429688  L 17.6 9.024425078125  L 17.683188125 9.024425078125  L 19.9971432617188 6.72761033203125  L 17.9274389453125 3.26239109375  L 14.7193258203125 4.0522782421875  L 12.971004140625 3.068133125  L 12.06541921875 0  L 7.9274389453125 0  L 7.0275675 3.069561484375  L 5.2792458203125 4.05513498046875  L 2.0711326953125 3.2652478125  L 0 6.72761033203125  L 2.3 9.02299671875  L 2.3 10.9712898242187  L 0 13.2695329296875  L 2.0697043359375 16.7347521875  L 5.2778174609375 15.9434366601562  L 7.02613912109375 16.9290101367187  L 7.92601056640625 20  L 12.06541921875 20  L 12.9652906640625 16.9290101367187  L 14.715040703125 15.9434366601562  L 17.92172546875 16.7347521875  L 19.9928581640625 13.2695329296875  L 17.6 10.9741465429688  Z M 10.0000003063817 13.3309530212255  C 8.16036591956602 13.3309530212255  6.66619024049329 11.8396346932058  6.66619024049329 10.0000003063901  C 6.66619024049329 8.1603659195744  8.15893692801938 6.66619054687499  9.99857131483507 6.66619054687499  C 11.8382057016508 6.66619054687499  13.3309530212338 8.15750856852136  13.3309530212338 9.99714295533705  C 13.3309530212338 11.8367773421527  11.8396346931974 13.3309530212255  10.0000003063817 13.3309530212255  Z " fill-rule="nonzero" fill="#d7d7d7" stroke="none" transform="matrix(1 0 0 1 22 69 )" />
  </g>
</svg>