<?xml version="1.0" encoding="utf-8"?>
<svg version="1.1" xmlns:xlink="http://www.w3.org/1999/xlink" width="14px" height="14px" xmlns="http://www.w3.org/2000/svg">
  <g transform="matrix(1 0 0 1 -396 -7 )">
    <path d="M 13.6815 1.94901960784314  L 8.5085 7  L 13.6815 12.0492647058824  C 14.0976855157298 12.4599502317381  14.1069735445841 13.1201287532476  13.7025 13.5419117647059  C 13.5072331406157 13.7469574215004  13.2339313992259 13.8633668224366  12.9477995518418 13.8633668224366  C 12.6726318644556 13.8633668224366  12.408847531606 13.7556820092085  12.215 13.5642156862745  L 7 8.47205882352941  L 1.785 13.5642156862745  C 1.59108708046117 13.7561908055286  1.32694073745391 13.8641994221237  1.05135846949789 13.8641994221237  C 0.765655348493794 13.8641994221237  0.49272352689724 13.7481374614546  0.2975 13.5436274509804  C -0.106973544584089 13.1218444395221  -0.0976855157297452 12.4616659180126  0.318499999999999 12.0509803921569  L 5.4915 7  L 0.318500000000001 1.95073529411765  C -0.0976855157297442 1.54004976826195  -0.106973544584084 0.879871246752438  0.297500000000001 0.458088235294118  C 0.492766859384259 0.253042578499628  0.766068600774132 0.13663317756343  1.05220044815823 0.13663317756343  C 1.32736813554439 0.13663317756343  1.59115246839397 0.244317990791514  1.785 0.435784313725491  L 7 5.52794117647059  L 12.215 0.435784313725491  C 12.4089129195388 0.24380919447135  12.6730592625461 0.135800577876275  12.9486415305021 0.135800577876275  C 13.2343446515062 0.135800577876275  13.5072764731028 0.251862538545394  13.7025 0.456372549019608  C 14.1069735445841 0.878155560477929  14.0976855157297 1.53833408198744  13.6815 1.94901960784314  Z " fill-rule="nonzero" fill="#7f7f7f" stroke="none" transform="matrix(1 0 0 1 396 7 )" />
  </g>
</svg>