<?xml version="1.0" encoding="utf-8"?>
<svg version="1.1" xmlns:xlink="http://www.w3.org/1999/xlink" width="16px" height="16px" xmlns="http://www.w3.org/2000/svg">
  <g transform="matrix(1 0 0 1 -25 -57 )">
    <path d="M 15.5 8  C 15.5 12.142  12.142 15.5  8 15.5  C 3.858 15.5  0.5 12.142  0.5 8  C 0.5 3.858  3.858 0.5  8 0.5  C 12.142 0.5  15.5 3.858  15.5 8  Z M 7.5 4  L 7.5 9.5  C 7.5 9.7761423749154  7.7238576250846 10  8 10  C 8.2761423749154 10  8.5 9.7761423749154  8.5 9.5  L 8.5 4  C 8.5 3.7238576250846  8.2761423749154 3.5  8 3.5  C 7.7238576250846 3.5  7.5 3.7238576250846  7.5 4  Z M 7.25 12.25  C 7.25 12.6642135623731  7.5857864376269 13  8 13  C 8.41421356237309 13  8.75 12.6642135623731  8.75 12.25  C 8.75 11.8357864376269  8.41421356237309 11.5  8 11.5  C 7.5857864376269 11.5  7.25 11.8357864376269  7.25 12.25  Z " fill-rule="nonzero" fill="#f59a23" stroke="none" transform="matrix(1 0 0 1 25 57 )" />
  </g>
</svg>