<?xml version="1.0" encoding="utf-8"?>
<svg version="1.1" xmlns:xlink="http://www.w3.org/1999/xlink" width="9px" height="6px" xmlns="http://www.w3.org/2000/svg">
  <g transform="matrix(1 0 0 1 -259 -229 )">
    <path d="M 0.186380597014924 1.16217105777138  C -0.0321167570301081 0.905263258977792  -0.0321167570301071 0.488815693530436  0.186380597014924 0.231907894736842  C 0.391698206540387 -0.00945664507670517  0.719952690999911 -0.0258413756175196  0.9422574583139 0.193749994860199  L 0.977798511835354 0.232236836965461  L 4.5 4.37171052631579  L 8.02220148816464 0.231907894736842  C 8.22751909940791 -0.00945665440227566  8.55577359315058 -0.0261703273543219  8.77807836258162 0.193421052631578  L 8.81361940298508 0.231907894736842  C 9.0189593846175 0.473246137512384  9.03317847936164 0.859089128017442  8.84636194029851 1.1203947317023  L 8.81361940298508 1.16217105777138  L 4.89570895085121 5.76743420538651  C 4.69039134132575 6.00879874520006  4.36213685686622 6.02551241796949  4.13983208955224 5.80592104749178  L 4.10429104914879 5.76743420538651  L 0.186380597014924 1.16217105777138  Z " fill-rule="nonzero" fill="#d7d7d7" stroke="none" transform="matrix(1 0 0 1 259 229 )" />
  </g>
</svg>