<?xml version="1.0" encoding="utf-8"?>
<svg version="1.1" xmlns:xlink="http://www.w3.org/1999/xlink" width="183px" height="79px" xmlns="http://www.w3.org/2000/svg">
  <g transform="matrix(1 0 0 1 -97 -333 )">
    <path d="M 98 337  A 3 3 0 0 1 101 334 L 276 334  A 3 3 0 0 1 279 337 L 279 408  A 3 3 0 0 1 276 411 L 101 411  A 3 3 0 0 1 98 408 L 98 337  Z " fill-rule="nonzero" fill="#ffffff" stroke="none" />
    <path d="M 97.5 337  A 3.5 3.5 0 0 1 101 333.5 L 276 333.5  A 3.5 3.5 0 0 1 279.5 337 L 279.5 408  A 3.5 3.5 0 0 1 276 411.5 L 101 411.5  A 3.5 3.5 0 0 1 97.5 408 L 97.5 337  Z " stroke-width="1" stroke-dasharray="3,1" stroke="#d7d7d7" fill="none" stroke-dashoffset="0.5" />
  </g>
</svg>