<?xml version="1.0" encoding="utf-8"?>
<svg version="1.1" xmlns:xlink="http://www.w3.org/1999/xlink" width="35px" height="35px" xmlns="http://www.w3.org/2000/svg">
  <g transform="matrix(1 0 0 1 -171 -355 )">
    <path d="M 18.8982599431818 1.49769176136364  L 18.8982599431818 16.1017400568182  L 33.5023082386364 16.1017400568182  C 34.2745361328125 16.1017400568182  34.9005681818182 16.7277721058239  34.9005681818182 17.5  C 34.9005681818182 18.2722278941761  34.2745361328125 18.8982599431818  33.5023082386364 18.8982599431818  L 18.8982599431818 18.8982599431818  L 18.8982599431818 33.5023082386364  C 18.8982599431818 34.2745361328125  18.2722278941761 34.9005681818182  17.5 34.9005681818182  C 16.7277721058239 34.9005681818182  16.1017400568182 34.2745361328125  16.1017400568182 33.5023082386364  L 16.1017400568182 18.8982599431818  L 1.49769176136364 18.8982599431818  C 0.7254638671875 18.8982599431818  0.0994318181818182 18.2722278941761  0.0994318181818182 17.5  C 0.0994318181818182 16.7277721058239  0.7254638671875 16.1017400568182  1.49769176136364 16.1017400568182  L 16.1017400568182 16.1017400568182  L 16.1017400568182 1.49769176136364  C 16.1017400568182 0.7254638671875  16.7277721058239 0.0994318181818182  17.5 0.0994318181818182  C 18.2722278941761 0.0994318181818182  18.8982599431818 0.7254638671875  18.8982599431818 1.49769176136364  Z " fill-rule="nonzero" fill="#d8d8d8" stroke="none" transform="matrix(1 0 0 1 171 355 )" />
  </g>
</svg>