<?xml version="1.0" encoding="utf-8"?>
<svg version="1.1" xmlns:xlink="http://www.w3.org/1999/xlink" width="74px" height="79px" xmlns="http://www.w3.org/2000/svg">
  <g transform="matrix(1 0 0 1 -582 -335 )">
    <path d="M 583 339  A 3 3 0 0 1 586 336 L 652 336  A 3 3 0 0 1 655 339 L 655 410  A 3 3 0 0 1 652 413 L 586 413  A 3 3 0 0 1 583 410 L 583 339  Z " fill-rule="nonzero" fill="#ffffff" stroke="none" />
    <path d="M 582.5 339  A 3.5 3.5 0 0 1 586 335.5 L 652 335.5  A 3.5 3.5 0 0 1 655.5 339 L 655.5 410  A 3.5 3.5 0 0 1 652 413.5 L 586 413.5  A 3.5 3.5 0 0 1 582.5 410 L 582.5 339  Z " stroke-width="1" stroke-dasharray="3,1" stroke="#d7d7d7" fill="none" stroke-dashoffset="0.5" />
  </g>
</svg>