<?xml version="1.0" encoding="utf-8"?>
<svg version="1.1" xmlns:xlink="http://www.w3.org/1999/xlink" width="28px" height="28px" xmlns="http://www.w3.org/2000/svg">
  <g transform="matrix(1 0 0 1 -605 -361 )">
    <path d="M 15 1.19815340909091  L 15 13  L 26.8018465909091 13  C 27.41962890625 12.8813920454545  27.9204545454545 13.3822176846591  27.9204545454545 14  C 27.9204545454545 14.6177823153409  27.41962890625 15.1186079545455  26.8018465909091 15  L 15 15  L 15 26.8018465909091  C 15.1186079545455 27.41962890625  14.6177823153409 27.9204545454545  14 27.9204545454545  C 13.3822176846591 27.9204545454545  12.8813920454545 27.41962890625  13 26.8018465909091  L 13 15  L 1.19815340909091 15  C 0.58037109375 15.1186079545455  0.0795454545454545 14.6177823153409  0.0795454545454545 14  C 0.0795454545454545 13.3822176846591  0.58037109375 12.8813920454545  1.19815340909091 13  L 13 13  L 13 1.19815340909091  C 12.8813920454545 0.58037109375  13.3822176846591 0.0795454545454545  14 0.0795454545454545  C 14.6177823153409 0.0795454545454545  15.1186079545455 0.58037109375  15 1.19815340909091  Z " fill-rule="nonzero" fill="#d8d8d8" stroke="none" transform="matrix(1 0 0 1 605 361 )" />
  </g>
</svg>