<?xml version="1.0" encoding="utf-8"?>
<svg version="1.1" xmlns:xlink="http://www.w3.org/1999/xlink" width="101px" height="79px" xmlns="http://www.w3.org/2000/svg">
  <g transform="matrix(1 0 0 1 -365 -333 )">
    <path d="M 366 337  A 3 3 0 0 1 369 334 L 462 334  A 3 3 0 0 1 465 337 L 465 408  A 3 3 0 0 1 462 411 L 369 411  A 3 3 0 0 1 366 408 L 366 337  Z " fill-rule="nonzero" fill="#ffffff" stroke="none" />
    <path d="M 365.5 337  A 3.5 3.5 0 0 1 369 333.5 L 462 333.5  A 3.5 3.5 0 0 1 465.5 337 L 465.5 408  A 3.5 3.5 0 0 1 462 411.5 L 369 411.5  A 3.5 3.5 0 0 1 365.5 408 L 365.5 337  Z " stroke-width="1" stroke-dasharray="3,1" stroke="#d7d7d7" fill="none" stroke-dashoffset="0.5" />
  </g>
</svg>