<?xml version="1.0" encoding="utf-8"?>
<svg version="1.1" xmlns:xlink="http://www.w3.org/1999/xlink" width="28px" height="28px" xmlns="http://www.w3.org/2000/svg">
  <defs>
    <filter x="80px" y="123px" width="28px" height="28px" filterUnits="userSpaceOnUse" id="filter59">
      <feOffset dx="0" dy="2" in="SourceAlpha" result="shadowOffsetInner" />
      <feGaussianBlur stdDeviation="1.5" in="shadowOffsetInner" result="shadowGaussian" />
      <feComposite in2="shadowGaussian" operator="atop" in="SourceAlpha" result="shadowComposite" />
      <feColorMatrix type="matrix" values="0 0 0 0 0.6  0 0 0 0 0.6  0 0 0 0 0.6  0 0 0 0.349019607843137 0  " in="shadowComposite" />
    </filter>
    <g id="widget60">
      <path d="M 94 124  C 100.16 124  105 128.84  105 135  C 105 141.16  100.16 146  94 146  C 87.84 146  83 141.16  83 135  C 83 128.84  87.84 124  94 124  Z " fill-rule="nonzero" fill="#ffffff" stroke="none" />
      <path d="M 94 124.5  C 99.88 124.5  104.5 129.12  104.5 135  C 104.5 140.88  99.88 145.5  94 145.5  C 88.12 145.5  83.5 140.88  83.5 135  C 83.5 129.12  88.12 124.5  94 124.5  Z " stroke-width="1" stroke="#ffffff" fill="none" />
    </g>
  </defs>
  <g transform="matrix(1 0 0 1 -80 -123 )">
    <use xlink:href="#widget60" filter="url(#filter59)" />
    <use xlink:href="#widget60" />
  </g>
</svg>