<?xml version="1.0" encoding="utf-8"?>
<svg version="1.1" xmlns:xlink="http://www.w3.org/1999/xlink" width="16px" height="16px" xmlns="http://www.w3.org/2000/svg">
  <g transform="matrix(1 0 0 1 -33 -171 )">
    <path d="M 7.99107615131579 15.9877787872517  C 12.3598825246711 15.9877787872517  15.9015023643092 12.4227045115894  15.9015023643092 8.02496564569537  C 15.9015023643092 3.62722677980132  12.3598825246711 0.0621525041390711  7.99107615131579 0.0621525041390711  C 3.62226977796052 0.0621525041390711  0.0806499383223689 3.62722677980132  0.0806499383223689 8.02496564569536  C 0.0806499383223689 12.4227045115894  3.62226977796052 15.9877787872517  7.99107615131579 15.9877787872517  Z M 13.3240077919408 7.64910393211921  L 13.3240077919408 8.40082737996689  C 13.3240077919408 8.62304492963577  13.1450554481908 8.80320355960265  12.9242998560855 8.79470198675497  L 8.73684210526316 8.79470198675497  L 8.73684210526316 12.9908596854305  C 8.76419407894737 13.2130772350993  8.58522068256579 13.3932358857616  8.36446509046052 13.3932358857616  L 7.61768719161184 13.3932358857616  C 7.39693159950658 13.3932358857616  7.217958203125 13.2130772350993  7.26315789473684 12.9908596854305  L 7.26315789473684 8.79470198675497  L 3.05783141447368 8.79470198675497  C 2.83707582236842 8.80320355960265  2.65810242598684 8.6230449089404  2.65810242598684 8.40082735927152  L 2.65810242598684 7.64910391142384  C 2.65810242598684 7.42688636175497  2.83707582236842 7.24672771109272  3.05783141447368 7.3112582781457  L 7.26315789473684 7.3112582781457  L 7.26315789473684 3.0590715852649  C 7.21793719161184 2.83685403559602  7.39691058799342 2.65669538493378  7.61766618009868 2.65669538493378  L 8.36444407894737 2.65669538493378  C 8.58519967105263 2.65669538493378  8.76417306743421 2.83685403559602  8.73684210526316 3.0590715852649  L 8.73684210526316 7.3112582781457  L 12.9242788034539 7.3112582781457  C 13.1450343955592 7.24672773178808  13.3240077919408 7.42688638245033  13.3240077919408 7.64910393211921  Z " fill-rule="nonzero" fill="#ffffff" stroke="none" transform="matrix(1 0 0 1 33 171 )" />
  </g>
</svg>