<?xml version="1.0" encoding="utf-8"?>
<svg version="1.1" xmlns:xlink="http://www.w3.org/1999/xlink" width="12px" height="12px" viewBox="168 93  12 12" xmlns="http://www.w3.org/2000/svg">
  <path d="M 174 93  C 177.36 93  180 95.64  180 99  C 180 102.36  177.36 105  174 105  C 170.64 105  168 102.36  168 99  C 168 95.64  170.64 93  174 93  Z " fill-rule="nonzero" fill="#f0f0f0" stroke="none" />
  <path d="M 174 93.5  C 177.08 93.5  179.5 95.92  179.5 99  C 179.5 102.08  177.08 104.5  174 104.5  C 170.92 104.5  168.5 102.08  168.5 99  C 168.5 95.92  170.92 93.5  174 93.5  Z " stroke-width="1" stroke="#797979" fill="none" />
  <path d="M 174 102  C 172.32 102  171 100.68  171 99  C 171 97.32  172.32 96  174 96  C 175.68 96  177 97.32  177 99  C 177 100.68  175.68 102  174 102  " fill-rule="nonzero" fill="#797979" stroke="none" />
</svg>