<?xml version="1.0" encoding="utf-8"?>
<svg version="1.1" xmlns:xlink="http://www.w3.org/1999/xlink" width="12px" height="12px" viewBox="246 93  12 12" xmlns="http://www.w3.org/2000/svg">
  <path d="M 252 93  C 255.36 93  258 95.64  258 99  C 258 102.36  255.36 105  252 105  C 248.64 105  246 102.36  246 99  C 246 95.64  248.64 93  252 93  Z " fill-rule="nonzero" fill="#f0f0f0" stroke="none" />
  <path d="M 252 93.5  C 255.08 93.5  257.5 95.92  257.5 99  C 257.5 102.08  255.08 104.5  252 104.5  C 248.92 104.5  246.5 102.08  246.5 99  C 246.5 95.92  248.92 93.5  252 93.5  Z " stroke-width="1" stroke="#797979" fill="none" />
  <path d="M 252 102  C 250.32 102  249 100.68  249 99  C 249 97.32  250.32 96  252 96  C 253.68 96  255 97.32  255 99  C 255 100.68  253.68 102  252 102  " fill-rule="nonzero" fill="#797979" stroke="none" />
</svg>