<?xml version="1.0" encoding="utf-8"?>
<svg version="1.1" xmlns:xlink="http://www.w3.org/1999/xlink" width="13px" height="14px" xmlns="http://www.w3.org/2000/svg">
  <g transform="matrix(1 0 0 1 -718 -441 )">
    <path d="M 2.58433734939759 12.7448797779838  L 2.58433734939759 11.6952607717994  L 2.58433734939759 11.5613454862149  L 2.58433734939759 2.53107344632768  L 6.1766210690418 2.53107344632768  C 6.1945739540192 2.53616738612288  6.21273031579443 2.53714751280014  6.23109016966302 2.53714751280014  C 6.24968479503953 2.53714751280014  6.26804463361258 2.53616738612288  6.28621664274285 2.5345233006709  L 6.78545407097138 2.53428616701977  C 6.80462781673569 2.53611995939266  6.82402068665286 2.53714749735169  6.8436640060241 2.53714749735169  C 6.86354209690324 2.53714749735169  6.88316975362387 2.53610414018361  6.90257828619164 2.53107344632768  L 12.3311748093938 2.53107344632768  C 12.669446672628 2.53170938162076  12.9437642931099 2.25499755252472  12.9437642931099 1.91304409207274  C 12.9437642625188 1.57107485875706  12.6694622893919 1.29436302966102  12.3311904261578 1.34463276836158  L 7.45356131871235 1.34463276836158  L 7.45083786826996 0.656980479784609  C 7.45083786826996 0.315011200123586  7.17653589514307 0.0382993864759851  6.83798230304028 0.0382993864759851  C 6.72641456607681 0.0382993864759851  6.62190591232116 0.0685568370409605  6.53179712325866 0.121167494262005  C 6.44164137683546 0.0685568370409605  6.33708576571912 0.0382993864759851  6.22540846667922 0.0382993864759851  C 5.88713660344503 0.0382993864759851  5.6128659403238 0.315011215572033  5.6128659403238 0.656980479784609  L 5.61574591020332 1.34463276836158  L 2.09599375352975 1.34463276836158  C 2.04661157285392 1.2862058483404  1.99483462796499 1.27928173110876  1.94144553134412 1.27928173110876  C 1.8878686052805 1.27928173110876  1.83591949359939 1.28626907883122  1.78639644084149 1.34463276836158  L 0.668793941782757 1.34463276836158  C 0.330522078548564 1.29983276836158  0.0562357680722911 1.57714531029308  0.0562357680722911 1.9184980579096  C 0.0562357680722911 2.26046733757062  0.330506446489082 2.53717915121822  0.668793941782757 2.53717915121822  L 1.33132530120482 2.53686298331568  L 1.33132530120482 12.0825040364583  L 1.33458470797251 12.7398526990643  C 1.33458470797251 13.4231905301024  1.88312604951054 13.9771990819209  2.5596854080384 13.9771990819209  L 3.17224358174887 13.9771990819209  L 3.17224358174887 13.9209039548023  L 9.91028963902485 13.9209039548023  L 9.91028963902485 13.9771990819209  L 10.5228478127353 13.9771990819209  C 11.1907046416133 13.9771990819209  11.7334390860316 13.4372758827684  11.7469879518072 12.7661105932203  L 11.7469879518072 3.753958677613  C 11.742282472468 3.41200521716102  11.4680274567018 3.13529338806497  11.1297242987575 3.13529338806497  C 10.7914524355233 3.13529338806497  10.5171817724021 3.41200521716102  10.4939759036145 3.753958677613  L 10.4939759036145 11.6222239892302  C 10.500058441971 12.5539922559145  10.2371668015813 12.7247397620939  9.29802884153803 12.7247397620939  L 9.93395552169616 12.7344632768362  L 2.98301043509977 12.7344632768362  L 3.78447306923005 12.7247397620939  C 2.87038352921227 12.7247397620939  2.59692149345237 12.5631076130312  2.58433734941096 11.6952607742308  C 2.58371540466799 11.6523692770161  2.58373068596862 11.6077527643555  2.58433734939759 11.5613454934675  L 2.58433734939759 11.6952607774013  L 2.58433734939759 12.7448797779838  Z M 2.55984191217997 11.5613455243644  L 2.5593723538686 11.4873934101342  C 2.5593723538686 11.5125921279131  2.55956016801581 11.5371427215749  2.55984191217997 11.5613455243644  Z M 8.6144578313253 11.507928628178  L 8.6144578313253 3.75032274673376  C 8.67593856833584 3.40836928628178  8.40166790521461 3.13165745718573  8.06306735575113 3.13165745718573  C 7.72477984516189 3.13165745718573  7.45052482939571 3.40835346707274  7.43975903614458 3.75032274673376  L 7.43975903614458 11.507928628178  C 7.45620651708396 11.8492971795551  7.73046153285015 12.1266097214866  8.06874904343938 12.1266097214866  C 8.40703655402861 12.1266097214866  8.68130721714985 11.8492971795551  8.6144578313253 11.507928628178  Z M 5.63855421686747 11.507928628178  L 5.63855421686747 3.75032274673376  C 5.6128659403238 3.40836928628178  5.338595261907 3.13165745718573  5.00032341396837 3.13165745718573  C 4.66203590337914 3.13165745718573  4.38776524025791 3.40835346707274  4.46385542168675 3.75032274673376  L 4.46385542168675 11.507928628178  C 4.39344692794616 11.8492971795551  4.66771760636295 12.1266097214866  5.00602076430723 12.1266097214866  C 5.34429262754142 12.1266097214866  5.61856329066265 11.8492971795551  5.63855421686747 11.507928628178  Z " fill-rule="nonzero" fill="#ffffff" stroke="none" transform="matrix(1 0 0 1 718 441 )" />
  </g>
</svg>