<?xml version="1.0" encoding="utf-8"?>
<svg version="1.1" xmlns:xlink="http://www.w3.org/1999/xlink" width="20px" height="20px" xmlns="http://www.w3.org/2000/svg">
  <g transform="matrix(1 0 0 1 -56 -73 )">
    <path d="M 12.0406717243392 10.4960297425191  C 12.0414994039293 10.4960297425191  12.0423270833841 10.4960304077734  12.0431547619048 10.4761904761905  L 15.2083333333333 10.4761904761905  C 15.2083333333333 10.4960317382812  15.2083333333333 10.4960317382812  15.2083333333333 10.4960317382812  C 17.8108656408839 10.4960317382812  19.9206349283854 12.6058010257827  19.9206349283854 15.2083333333333  C 19.9206349283854 17.8108656408839  17.8108656408839 19.9206349283854  15.2083333333333 19.9206349283854  C 12.6058010257827 19.9206349283854  10.4960317382812 17.8108656408839  10.4761904761905 15.2083333333333  L 10.4761904761905 12.0436507859003  C 10.4960298242251 12.0426580583066  10.4960288671964 12.0416653291008  10.4960288671964 12.0406725996619  C 10.4960288671964 11.1875899057269  11.1875890304042 10.4960297425191  12.0406717243392 10.4960297425191  Z M 9.5039702560718 12.0406726010711  C 9.5039702560718 12.0414999884165  9.50396959128724 12.0423273756276  9.52380952380952 12.0431547619048  L 9.52380952380952 15.2083333333333  C 9.50396826171875 15.2083333333333  9.50396826171875 15.2083333333333  9.50396826171875 15.2083333333333  C 9.50396826171875 17.8108656408839  7.39419897421726 19.9206349283854  4.79166666666667 19.9206349283854  C 2.18913435911608 19.9206349283854  0.0793650716145863 17.8108656408839  0.0793650716145863 15.2083333333333  C 0.0793650716145863 12.6058010257827  2.18913435911608 10.4960317382812  4.79166666666667 10.4960317382812  C 4.79166666666667 10.4960317382812  4.79166666666667 10.4960317382812  4.79166666666667 10.4761904761905  L 7.95684523809524 10.4761904761905  C 7.957672624373 10.4960304087128  7.95850001158291 10.4960297439282  7.95932739892894 10.4960297439282  C 8.812410092864 10.4960297439282  9.5039702560718 11.187589907136  9.5039702560718 12.0406726010711  Z M 7.95932739892894 9.5039702560718  C 7.95850001158348 9.5039702560718  7.95767262437243 9.50396959128724  7.95684523809524 9.52380952380952  L 4.79166666666667 9.52380952380952  C 4.79166666666667 9.50396826171875  4.79166666666667 9.50396826171875  4.79166666666667 9.50396826171875  C 2.18913435911608 9.50396826171875  0.0793650716145863 7.39419897421726  0.0793650716145863 4.79166666666667  C 0.0793650716145863 2.18913435911608  2.18913435911608 0.0793650716145863  4.79166666666667 0.0793650716145863  C 7.39419897421726 0.0793650716145863  9.50396826171875 2.18913435911608  9.50396826171875 4.79166666666667  C 9.50396826171875 4.79166666666667  9.50396826171875 4.79166666666667  9.52380952380952 4.79166666666667  L 9.52380952380952 7.95684523809524  C 9.50396959128724 7.95767262437186  9.5039702560718 7.95850001158404  9.5039702560718 7.95932739892894  C 9.5039702560718 8.81241009286401  8.812410092864 9.5039702560718  7.95932739892894 9.5039702560718  Z M 11.4530491121329 1.94455342243747  C 11.4518389484577 1.92030401287256  11.4543855404086 1.91576075638535  11.4530491121329 1.94455342243747  C 11.4465434643588 2.08471428793975  11.4385046719817 2.89583621006896  11.4285714285714 4.79166666666667  L 11.4285714285714 7.95684523809524  C 11.4806547619048 8.26934523809524  11.7301587379092 8.51934523809524  12.0431547619048 8.57142857142857  L 15.2083333333333 8.57142857142857  C 15.2083333333333 8.51934523809524  15.2083333333333 8.51934523809524  15.2083333333333 8.51934523809524  C 17.2670733606044 8.51934523809524  18.9360119047619 6.8504066939377  18.9360119047619 4.79166666666666  C 18.9360119047619 2.73292663939563  17.2670733606044 1.06398809523809  15.2083333333333 1.06398809523809  C 13.1495933060623 1.06398809523809  11.4806547619048 2.73292663939563  11.4806547619048 4.79166666666666  C 11.4806547619048 12.4468598023991  11.4806547619048 2.41618533306322  11.4568674317736 1.93953186656445  C 12.317664070197 0.809049115124006  13.6777926808044 0.0793650716145863  15.2083333072272 0.0793650716145863  C 17.8108656147778 0.0793650716145863  19.9206349022793 2.18913435911608  19.9206349022793 4.79166666666667  C 19.9206349022793 7.39419897421726  17.8108656147778 9.50396826171875  15.2083333072272 9.50396826171875  C 15.2083333072272 9.50396826171875  15.2083333333333 9.50396826171875  15.2083333333333 9.52380952380952  L 12.0436507859003 9.52380952380952  C 12.0426580583076 9.5039701757749  12.0416653290999 9.50397113280363  12.0406725996619 9.50397113280363  C 11.1875899057269 9.50397113280363  10.4960297425191 8.81241096959584  10.4960297425191 7.95932827566078  C 10.4960297425191 7.95850059607072  10.4960304077734 7.95767291661589  10.4761904761905 7.95684523809524  L 10.4761904761905 4.79166666666667  L 10.4960317382812 4.79117064267113  C 10.4961443189402 3.72163767529833  10.8525626268004 2.73535668269908  11.4530491121329 1.94455342243747  Z M 11.4285714285714 12.0431547619048  L 11.4285714285714 15.2083333333333  L 11.4806547619048 15.2083333333333  C 11.4806547619048 17.2670733606044  13.1495933060623 18.9360119047619  15.2083333333333 18.9360119047619  C 17.2670733606044 18.9360119047619  18.9360119047619 17.2670733606044  18.9360119047619 15.2083333333333  C 18.9360119047619 13.1495933060623  17.2670733606044 11.4806547619048  15.2083333333333 11.4806547619048  L 15.2083333333333 11.4285714285714  L 12.0436507859003 11.4285714285714  C 11.7306547619048 11.4806547619048  11.4811507859003 11.7306547619048  11.4285714285714 12.0431547619048  Z M 7.95684523809524 11.4285714285714  L 4.79166666666667 11.4285714285714  L 4.79166666666667 11.4806547619048  C 2.73292663939563 11.4806547619048  1.0639880952381 13.1495933060623  1.0639880952381 15.2083333333333  C 1.0639880952381 17.2670733606044  2.73292663939563 18.9360119047619  4.79166666666667 18.9360119047619  C 6.8504066939377 18.9360119047619  8.51934523809524 17.2670733606044  8.51934523809524 15.2083333333333  C 8.51934523809524 15.2083333333333  8.51934523809524 15.2083333333333  8.57142857142857 15.2083333333333  L 8.57142857142857 12.0436507859003  C 8.51934523809524 11.7311507859003  8.26984126209078 11.4811507859003  7.95684523809524 11.4285714285714  Z M 7.95684523809524 8.57142857142857  C 8.26984126209078 8.51934523809524  8.51934523809524 8.26934523809524  8.57142857142857 7.95684523809524  L 8.57142857142857 4.79166666666667  C 8.51934523809524 4.79166666666667  8.51934523809524 4.79166666666667  8.51934523809524 4.79166666666667  C 8.51934523809524 2.73292663939563  6.8504066939377 1.0639880952381  4.79166666666667 1.0639880952381  C 2.73292663939563 1.0639880952381  1.0639880952381 2.73292663939563  1.0639880952381 4.79166666666667  C 1.0639880952381 6.8504066939377  2.73292663939563 8.51934523809524  4.79166666666667 8.51934523809524  C 4.79166666666667 8.51934523809524  4.79166666666667 8.51934523809524  4.79166666666667 8.57142857142857  L 7.95684523809524 8.57142857142857  Z " fill-rule="nonzero" fill="#d7d7d7" stroke="none" transform="matrix(1 0 0 1 56 73 )" />
  </g>
</svg>